<?xml version="1.0" encoding="UTF-8" standalone="no"?>
<svg
   xmlns:dc="http://purl.org/dc/elements/1.1/"
   xmlns:cc="http://creativecommons.org/ns#"
   xmlns:rdf="http://www.w3.org/1999/02/22-rdf-syntax-ns#"
   xmlns:svg="http://www.w3.org/2000/svg"
   xmlns="http://www.w3.org/2000/svg"
   xmlns:sodipodi="http://sodipodi.sourceforge.net/DTD/sodipodi-0.dtd"
   xmlns:inkscape="http://www.inkscape.org/namespaces/inkscape"
   version="1.1"
   id="svg10"
   width="266.66666"
   height="266.66666"
   viewBox="0 0 266.66666 266.66666"
   sodipodi:docname="habotad.svg"
   inkscape:version="1.0.1 (3bc2e813f5, 2020-09-07)">
  <metadata
     id="metadata16">
    <rdf:RDF>
      <cc:Work
         rdf:about="">
        <dc:format>image/svg+xml</dc:format>
        <dc:type
           rdf:resource="http://purl.org/dc/dcmitype/StillImage" />
        <dc:title></dc:title>
      </cc:Work>
    </rdf:RDF>
  </metadata>
  <defs
     id="defs14" />
  <sodipodi:namedview
     pagecolor="#ffffff"
     bordercolor="#666666"
     borderopacity="1"
     objecttolerance="10"
     gridtolerance="10"
     guidetolerance="10"
     inkscape:pageopacity="0"
     inkscape:pageshadow="2"
     inkscape:window-width="1920"
     inkscape:window-height="1016"
     id="namedview12"
     showgrid="false"
     inkscape:zoom="2.9775001"
     inkscape:cx="128.28863"
     inkscape:cy="134.05809"
     inkscape:window-x="0"
     inkscape:window-y="0"
     inkscape:window-maximized="1"
     inkscape:current-layer="g18" />
  <g
     inkscape:groupmode="layer"
     inkscape:label="Image"
     id="g18">
    <path
       style="fill:#0f0f0f;stroke-width:1.33333"
       d="m 26.687639,240.47783 c -1.81888,-0.9203 -4.06003,-3.16146 -4.98034,-4.98034 -1.24124,-2.45318 -1.67836,-14.7766 -1.69294,-47.72804 -0.0137,-30.87536 0.44635,-45.29173 1.50855,-47.27647 2.05329,-3.83662 97.263361,-110.491774 101.869061,-114.114615 1.99596,-1.570027 4.66719,-2.854593 5.93607,-2.854593 1.26888,0 3.98693,1.321398 6.04012,2.936441 5.65225,4.446061 100.66865,113.255077 102.1249,116.949397 0.74173,1.88167 1.10956,21.67153 0.88531,47.63123 -0.38182,44.19817 -0.3983,44.42667 -3.42071,47.44749 -3.03704,3.03544 -3.03704,3.03544 -78.96296,3.03544 -75.925931,0 -75.925931,0 -78.962961,-3.03498 -2.99552,-2.99349 -3.04241,-3.54549 -3.43,-40.37627 -0.39295,-37.3413 -0.39295,-37.3413 3.56411,-41.29836 3.95705,-3.95706 3.95705,-3.95706 51.985271,-3.95706 48.02821,0 48.02821,0 51.76923,3.2179 3.74102,3.21788 3.74102,3.21788 3.74102,20.7821 0,17.56423 0,17.56423 -3.74102,20.78211 -2.05756,1.76984 -5.12665,3.21789 -6.8202,3.21789 -1.69353,0 -4.66008,-1.24354 -6.5923,-2.76344 -3.1359,-2.46669 -3.51315,-3.672 -3.51315,-11.22428 0,-4.65346 -0.36419,-9.40992 -0.80932,-10.56989 -0.70787,-1.84468 -4.95185,-2.10905 -33.85734,-2.10905 -28.9055,0 -33.149481,0.26437 -33.857361,2.10905 -0.44512,1.15997 -0.80931,10.93997 -0.80931,21.73333 0,13.48555 0.5005,20.12479 1.6,21.22428 1.19551,1.19552 16.296301,1.6 59.733331,1.6 43.43704,0 58.53781,-0.40448 59.73333,-1.6 1.16118,-1.16117 1.5743,-10.39471 1.50628,-33.66666 -0.0515,-17.63667 -0.50153,-33.07534 -1,-34.30816 -0.49845,-1.23283 -19.76293,-23.73283 -42.80996,-50.00001 C 148.27232,72.615967 130.58696,53.523771 129.185,53.523771 c -1.38822,0 -18.85559,18.547676 -43.061051,45.724245 -22.39896,25.148344 -41.64125,47.031844 -42.76065,48.630024 -1.71921,2.45452 -2.03527,9.36493 -2.03527,44.50002 0,22.87685 -0.37271,42.56553 -0.82824,43.75264 -0.45553,1.18709 -2.52574,3.03617 -4.60045,4.10905 -2.07472,1.07287 -4.25201,1.94184 -4.83843,1.93103 -0.58641,-0.0107 -2.55439,-0.77264 -4.37327,-1.69295 z"
       id="path164216" />
  </g>
</svg>
